<svg width="144" height="27" viewBox="0 0 144 27" fill="none" xmlns="http://www.w3.org/2000/svg">
<path d="M5.504 26L0.704 2.448H4.544L6.72 14.704C7.168 17.2 7.584 19.728 8 22.288H8.128C8.64 19.728 9.184 17.2 9.728 14.704L12.736 2.448H16.032L19.072 14.704C19.648 17.168 20.128 19.728 20.704 22.288H20.864C21.248 19.728 21.664 17.2 22.048 14.704L24.288 2.448H27.84L23.2 26H18.592L15.456 12.912C15.04 11.088 14.688 9.328 14.368 7.536H14.24C13.888 9.328 13.472 11.088 13.12 12.912L10.016 26H5.504ZM38.7058 26.448C33.9058 26.448 30.1298 23.024 30.1298 17.232C30.1298 11.504 34.0658 7.952 38.1618 7.952C42.8018 7.952 45.3298 11.312 45.3298 16.304C45.3298 17.04 45.2658 17.744 45.1698 18.192H33.7458C34.0338 21.552 36.1458 23.536 39.1858 23.536C40.7538 23.536 42.0658 23.056 43.3778 22.224L44.6578 24.592C43.0258 25.68 41.0098 26.448 38.7058 26.448ZM33.6818 15.632H42.1298C42.1298 12.592 40.7858 10.864 38.2258 10.864C36.0178 10.864 34.0658 12.56 33.6818 15.632ZM57.6948 26.448C56.0948 26.448 54.3028 25.616 52.8308 24.176H52.7028L52.3828 26H49.4708V0.527998H53.1828V7.248L53.0228 10.256C54.5588 8.944 56.4148 7.952 58.3028 7.952C62.7508 7.952 65.2788 11.504 65.2788 16.912C65.2788 22.96 61.6628 26.448 57.6948 26.448ZM56.9908 23.376C59.5188 23.376 61.4708 21.104 61.4708 16.976C61.4708 13.296 60.2548 11.024 57.3108 11.024C55.9668 11.024 54.6228 11.76 53.1828 13.168V21.776C54.4948 22.96 55.9028 23.376 56.9908 23.376Z" fill="black"/>
<path d="M73.2758 26.448C70.5878 26.448 69.5958 24.72 69.5958 21.872V0.527998H73.3078V22.064C73.3078 23.056 73.7238 23.408 74.1718 23.408C74.3318 23.408 74.4598 23.408 74.7798 23.344L75.2598 26.128C74.7798 26.288 74.2038 26.448 73.2758 26.448ZM86.199 26.448C81.815 26.448 77.911 23.056 77.911 17.232C77.911 11.344 81.815 7.952 86.199 7.952C90.551 7.952 94.487 11.344 94.487 17.232C94.487 23.056 90.551 26.448 86.199 26.448ZM86.199 23.408C88.951 23.408 90.711 20.944 90.711 17.232C90.711 13.488 88.951 11.024 86.199 11.024C83.415 11.024 81.719 13.488 81.719 17.232C81.719 20.944 83.415 23.408 86.199 23.408ZM105.887 26.448C101.503 26.448 97.5985 23.056 97.5985 17.232C97.5985 11.344 101.503 7.952 105.887 7.952C110.239 7.952 114.175 11.344 114.175 17.232C114.175 23.056 110.239 26.448 105.887 26.448ZM105.887 23.408C108.639 23.408 110.399 20.944 110.399 17.232C110.399 13.488 108.639 11.024 105.887 11.024C103.103 11.024 101.407 13.488 101.407 17.232C101.407 20.944 103.103 23.408 105.887 23.408ZM118.502 26V8.4H121.51L121.83 10.864H121.926C123.43 9.264 125.19 7.952 127.366 7.952C129.99 7.952 131.462 9.168 132.198 11.184C133.958 9.36 135.75 7.952 137.958 7.952C141.638 7.952 143.334 10.48 143.334 14.928V26H139.654V15.408C139.654 12.336 138.726 11.152 136.742 11.152C135.526 11.152 134.246 11.92 132.774 13.52V26H129.094V15.408C129.094 12.336 128.166 11.152 126.15 11.152C124.966 11.152 123.622 11.92 122.214 13.52V26H118.502Z" fill="black"/>
<path d="M73.2758 26.448C70.5878 26.448 69.5958 24.72 69.5958 21.872V0.527998H73.3078V22.064C73.3078 23.056 73.7238 23.408 74.1718 23.408C74.3318 23.408 74.4598 23.408 74.7798 23.344L75.2598 26.128C74.7798 26.288 74.2038 26.448 73.2758 26.448ZM86.199 26.448C81.815 26.448 77.911 23.056 77.911 17.232C77.911 11.344 81.815 7.952 86.199 7.952C90.551 7.952 94.487 11.344 94.487 17.232C94.487 23.056 90.551 26.448 86.199 26.448ZM86.199 23.408C88.951 23.408 90.711 20.944 90.711 17.232C90.711 13.488 88.951 11.024 86.199 11.024C83.415 11.024 81.719 13.488 81.719 17.232C81.719 20.944 83.415 23.408 86.199 23.408ZM105.887 26.448C101.503 26.448 97.5985 23.056 97.5985 17.232C97.5985 11.344 101.503 7.952 105.887 7.952C110.239 7.952 114.175 11.344 114.175 17.232C114.175 23.056 110.239 26.448 105.887 26.448ZM105.887 23.408C108.639 23.408 110.399 20.944 110.399 17.232C110.399 13.488 108.639 11.024 105.887 11.024C103.103 11.024 101.407 13.488 101.407 17.232C101.407 20.944 103.103 23.408 105.887 23.408ZM118.502 26V8.4H121.51L121.83 10.864H121.926C123.43 9.264 125.19 7.952 127.366 7.952C129.99 7.952 131.462 9.168 132.198 11.184C133.958 9.36 135.75 7.952 137.958 7.952C141.638 7.952 143.334 10.48 143.334 14.928V26H139.654V15.408C139.654 12.336 138.726 11.152 136.742 11.152C135.526 11.152 134.246 11.92 132.774 13.52V26H129.094V15.408C129.094 12.336 128.166 11.152 126.15 11.152C124.966 11.152 123.622 11.92 122.214 13.52V26H118.502Z" fill="url(#paint0_linear_13_4)"/>
<defs>
<linearGradient id="paint0_linear_13_4" x1="6.69977e-08" y1="4.11429" x2="143.944" y2="26.2208" gradientUnits="userSpaceOnUse">
<stop offset="0.55373" stop-color="#8D42F5"/>
<stop offset="1" stop-color="#FF4185"/>
</linearGradient>
</defs>
</svg>
