<svg width="90" height="17" viewBox="0 0 90 17" fill="none" xmlns="http://www.w3.org/2000/svg">
<path d="M3.44 16L0.44 1.28H2.84L4.2 8.94C4.48 10.5 4.74 12.08 5 13.68H5.08C5.4 12.08 5.74 10.5 6.08 8.94L7.96 1.28H10.02L11.92 8.94C12.28 10.48 12.58 12.08 12.94 13.68H13.04C13.28 12.08 13.54 10.5 13.78 8.94L15.18 1.28H17.4L14.5 16H11.62L9.66 7.82C9.4 6.68 9.18 5.58 8.98 4.46H8.9C8.68 5.58 8.42 6.68 8.2 7.82L6.26 16H3.44ZM24.1911 16.28C21.1911 16.28 18.8311 14.14 18.8311 10.52C18.8311 6.94 21.2911 4.72 23.8511 4.72C26.7511 4.72 28.3311 6.82 28.3311 9.94C28.3311 10.4 28.2911 10.84 28.2311 11.12H21.0911C21.2711 13.22 22.5911 14.46 24.4911 14.46C25.4711 14.46 26.2911 14.16 27.1111 13.64L27.9111 15.12C26.8911 15.8 25.6311 16.28 24.1911 16.28ZM21.0511 9.52H26.3311C26.3311 7.62 25.4911 6.54 23.8911 6.54C22.5111 6.54 21.2911 7.6 21.0511 9.52ZM36.0592 16.28C35.0592 16.28 33.9392 15.76 33.0192 14.86H32.9392L32.7392 16H30.9192V0.0799987H33.2392V4.28L33.1392 6.16C34.0992 5.34 35.2592 4.72 36.4392 4.72C39.2192 4.72 40.7992 6.94 40.7992 10.32C40.7992 14.1 38.5392 16.28 36.0592 16.28ZM35.6192 14.36C37.1992 14.36 38.4192 12.94 38.4192 10.36C38.4192 8.06 37.6592 6.64 35.8192 6.64C34.9792 6.64 34.1392 7.1 33.2392 7.98V13.36C34.0592 14.1 34.9392 14.36 35.6192 14.36Z" fill="black"/>
<path d="M45.7973 16.28C44.1173 16.28 43.4973 15.2 43.4973 13.42V0.0799987H45.8173V13.54C45.8173 14.16 46.0773 14.38 46.3573 14.38C46.4573 14.38 46.5373 14.38 46.7373 14.34L47.0373 16.08C46.7373 16.18 46.3773 16.28 45.7973 16.28ZM53.8744 16.28C51.1344 16.28 48.6944 14.16 48.6944 10.52C48.6944 6.84 51.1344 4.72 53.8744 4.72C56.5944 4.72 59.0544 6.84 59.0544 10.52C59.0544 14.16 56.5944 16.28 53.8744 16.28ZM53.8744 14.38C55.5944 14.38 56.6944 12.84 56.6944 10.52C56.6944 8.18 55.5944 6.64 53.8744 6.64C52.1344 6.64 51.0744 8.18 51.0744 10.52C51.0744 12.84 52.1344 14.38 53.8744 14.38ZM66.1791 16.28C63.4391 16.28 60.9991 14.16 60.9991 10.52C60.9991 6.84 63.4391 4.72 66.1791 4.72C68.8991 4.72 71.3591 6.84 71.3591 10.52C71.3591 14.16 68.8991 16.28 66.1791 16.28ZM66.1791 14.38C67.8991 14.38 68.9991 12.84 68.9991 10.52C68.9991 8.18 67.8991 6.64 66.1791 6.64C64.4391 6.64 63.3791 8.18 63.3791 10.52C63.3791 12.84 64.4391 14.38 66.1791 14.38ZM74.0638 16V5H75.9438L76.1438 6.54H76.2038C77.1438 5.54 78.2438 4.72 79.6038 4.72C81.2438 4.72 82.1638 5.48 82.6237 6.74C83.7238 5.6 84.8438 4.72 86.2238 4.72C88.5238 4.72 89.5838 6.3 89.5838 9.08V16H87.2838V9.38C87.2838 7.46 86.7038 6.72 85.4638 6.72C84.7038 6.72 83.9038 7.2 82.9838 8.2V16H80.6838V9.38C80.6838 7.46 80.1038 6.72 78.8438 6.72C78.1038 6.72 77.2638 7.2 76.3838 8.2V16H74.0638Z" fill="black"/>
<path d="M45.7973 16.28C44.1173 16.28 43.4973 15.2 43.4973 13.42V0.0799987H45.8173V13.54C45.8173 14.16 46.0773 14.38 46.3573 14.38C46.4573 14.38 46.5373 14.38 46.7373 14.34L47.0373 16.08C46.7373 16.18 46.3773 16.28 45.7973 16.28ZM53.8744 16.28C51.1344 16.28 48.6944 14.16 48.6944 10.52C48.6944 6.84 51.1344 4.72 53.8744 4.72C56.5944 4.72 59.0544 6.84 59.0544 10.52C59.0544 14.16 56.5944 16.28 53.8744 16.28ZM53.8744 14.38C55.5944 14.38 56.6944 12.84 56.6944 10.52C56.6944 8.18 55.5944 6.64 53.8744 6.64C52.1344 6.64 51.0744 8.18 51.0744 10.52C51.0744 12.84 52.1344 14.38 53.8744 14.38ZM66.1791 16.28C63.4391 16.28 60.9991 14.16 60.9991 10.52C60.9991 6.84 63.4391 4.72 66.1791 4.72C68.8991 4.72 71.3591 6.84 71.3591 10.52C71.3591 14.16 68.8991 16.28 66.1791 16.28ZM66.1791 14.38C67.8991 14.38 68.9991 12.84 68.9991 10.52C68.9991 8.18 67.8991 6.64 66.1791 6.64C64.4391 6.64 63.3791 8.18 63.3791 10.52C63.3791 12.84 64.4391 14.38 66.1791 14.38ZM74.0638 16V5H75.9438L76.1438 6.54H76.2038C77.1438 5.54 78.2438 4.72 79.6038 4.72C81.2438 4.72 82.1638 5.48 82.6237 6.74C83.7238 5.6 84.8438 4.72 86.2238 4.72C88.5238 4.72 89.5838 6.3 89.5838 9.08V16H87.2838V9.38C87.2838 7.46 86.7038 6.72 85.4638 6.72C84.7038 6.72 83.9038 7.2 82.9838 8.2V16H80.6838V9.38C80.6838 7.46 80.1038 6.72 78.8438 6.72C78.1038 6.72 77.2638 7.2 76.3838 8.2V16H74.0638Z" fill="url(#paint0_linear_13_4)"/>
<defs>
<linearGradient id="paint0_linear_13_4" x1="4.22177e-08" y1="2.52857" x2="90.7067" y2="16.4524" gradientUnits="userSpaceOnUse">
<stop offset="0.55373" stop-color="#8D42F5"/>
<stop offset="1" stop-color="#FF4185"/>
</linearGradient>
</defs>
</svg>
